# xmcd
#
# Track frame offsets:
#	150
#	16045
#	35612
#	51662
#	74000
#	89762
#	113285
#	136362
#	155012
#	176912
#	197860
#	212125
#	234267
#	252747
#
# Disc length: 3606 seconds
#
# Revision: 1
# Processed by: cddbd v1.5PL3 Copyright (c) Steve Scherf et al.
# Submitted via: CDex 1.50Beta5
#
DISCID=d30e140e
DTITLE=Various Artist - Please! ポニーキャニオン NEWシングルコレクション
DYEAR=1900
DGENRE=Pop
TTITLE0=工藤静香/嵐の素顔
TTITLE1=田原俊彦/ごめんよ涙
TTITLE2=斉藤由貴/夢の中へ
TTITLE3=MASAHARU/暴れる女神〜HURRICANE GIRL〜
TTITLE4=生稲晃子/Japanese Girl
TTITLE5=真璃子/セシルの週末
TTITLE6=Beat Boys/誰よりもLady Jane
TTITLE7=GO-BANG'S/スペシャル・ボーイフレンド
TTITLE8=BaBe/She has a dream
TTITLE9=INGRY MONGRY/-5cmの愛を抱きしめて
TTITLE10=井森美幸/セピア・あなた・かも
TTITLE11=関口誠人/TALKING MAN
TTITLE12=里中茶美/ティーンエイジ・セレナーデ
TTITLE13=レモンエンジェル/夏のMAJO
EXTD=
EXTT0=
EXTT1=
EXTT2=
EXTT3=
EXTT4=
EXTT5=
EXTT6=
EXTT7=
EXTT8=
EXTT9=
EXTT10=
EXTT11=
EXTT12=
EXTT13=
PLAYORDER=
